<svg width="1021" height="240" viewBox="0 0 1021 240" fill="none" xmlns="http://www.w3.org/2000/svg">
<path d="M0 56C0 25.0721 25.018 0 55.8796 0H207.553V56H0Z" fill="white"/>
<path d="M335.278 0V176C335.278 211.346 306.685 240 271.415 240V146.4H207.553V240H143.69V64H207.553V86.4H271.415V0H335.278Z" fill="white"/>
<path d="M534.848 177.169V0H470.985V180H407.123V0H343.26V176C343.26 210.811 370.994 239.131 405.526 239.98C405.526 239.98 439.852 240 473.38 240C506.908 240 534.848 210.8 534.848 177.169Z" fill="white"/>
<path d="M71.8452 240V113.28L135.708 64V240H71.8452Z" fill="white"/>
<path d="M890.88 0H946.127C987.478 0 1021 28.6538 1021 64V176C1021 211.346 987.478 240 946.127 240H894.872L856.554 180H952.678V60H852.563L890.88 0Z" fill="white"/>
<path d="M606.693 124.402V240C571.423 240 542.83 211.346 542.83 176V0L543 0.191357L542.909 0H606.357L678.084 115.809V0C713.354 0 742.4 28.6538 742.4 64V101.543L807.077 0H880.911L806.691 116.529L885.334 240H811.498L742.4 131.514V240H685.269L606.693 124.402Z" fill="white"/>
</svg>
