<?xml version="1.0" encoding="UTF-8" standalone="no"?>
<!DOCTYPE svg PUBLIC "-//W3C//DTD SVG 1.1//EN" "http://www.w3.org/Graphics/SVG/1.1/DTD/svg11.dtd">
<svg width="100%" height="100%" viewBox="0 0 1324 287" version="1.1" xmlns="http://www.w3.org/2000/svg" xmlns:xlink="http://www.w3.org/1999/xlink" xml:space="preserve" xmlns:serif="http://www.serif.com/" style="fill-rule:evenodd;clip-rule:evenodd;stroke-linejoin:round;stroke-miterlimit:2;">
    <g transform="matrix(1,0,0,1,-4918.43,-1043.55)">
        <g transform="matrix(1,0,0,1,3826,0)">
            <g transform="matrix(1.48985,0,0,1.48985,-10506.1,-919.051)">
                <path d="M8125.13,1328.09C8145.82,1328.29 8166.94,1328.43 8188.4,1328.5L8188.4,1423.55C8188.4,1432.59 8190.58,1439.63 8194.92,1444.69C8199.26,1449.74 8205.42,1452.26 8213.4,1452.26C8221.37,1452.26 8227.53,1449.74 8231.87,1444.69C8236.21,1439.63 8238.38,1432.59 8238.38,1423.55L8238.38,1328.57C8259.72,1328.56 8280.75,1328.48 8301.39,1328.34L8301.39,1430.46C8301.39,1441.63 8299.49,1452.04 8295.67,1461.7C8291.86,1471.36 8286.24,1479.73 8278.79,1486.82C8271.35,1493.91 8262.09,1499.5 8251.01,1503.57C8239.93,1507.65 8227.04,1509.68 8212.33,1509.68C8197.62,1509.68 8184.82,1507.65 8173.92,1503.57C8163.02,1499.5 8153.93,1493.91 8146.67,1486.82C8139.4,1479.73 8133.99,1471.36 8130.45,1461.7C8126.9,1452.04 8125.13,1441.63 8125.13,1430.46L8125.13,1328.09ZM7784.99,1317.32C7839.58,1321.13 7914.85,1324.22 8002.99,1326.18L8002.99,1379.95L8054.56,1379.95L8054.56,1327.18C8075.2,1327.52 8096.41,1327.81 8118.1,1328.03L8118.1,1504.37L8054.82,1504.37L8054.82,1432.86L8003.25,1432.86L8003.25,1504.37L7939.98,1504.37L7939.98,1369.58L7894.52,1369.58L7894.52,1504.37L7831.25,1504.37L7831.25,1369.58L7784.99,1369.58L7784.99,1317.32ZM8486.79,1325.41C8506.77,1324.89 8525.99,1324.3 8544.34,1323.66L8544.34,1385.54L8544.87,1385.54L8591,1321.84C8619.79,1320.58 8645.74,1319.17 8668.33,1317.64L8598.84,1402.28L8673.01,1504.37L8595.38,1504.37L8545.14,1429.4L8544.61,1429.4L8544.61,1504.37L8419.02,1504.37L8366.91,1414.51L8365.85,1414.51L8368.51,1504.37L8308.43,1504.37L8308.43,1328.3C8332.11,1328.13 8355.3,1327.88 8377.86,1327.57L8425.13,1411.59L8426.2,1411.59L8423.84,1326.82C8442.79,1326.47 8461.23,1326.06 8479.08,1325.61L8483,1469L8486.79,1325.41Z" style="fill:white;fill-rule:nonzero;"/>
            </g>
        </g>
    </g>
</svg>
